<?xml version="1.0" encoding="utf-8"?>
<!-- Generator: Adobe Illustrator 24.3.0, SVG Export Plug-In . SVG Version: 6.00 Build 0)  -->
<svg version="1.1" id="Layer_1" xmlns="http://www.w3.org/2000/svg" xmlns:xlink="http://www.w3.org/1999/xlink" x="0px" y="0px"
	 viewBox="0 0 150 40" style="enable-background:new 0 0 150 40;" xml:space="preserve">
<style type="text/css">
	.st0{fill:#FFFFFF;}
</style>
<g>
	<polygon class="st0" points="143.02,10.53 147,0.48 126.85,0.48 120.11,0.48 116.04,0.48 100.67,39.37 109.26,39.37 111.37,39.37 
		131.62,39.37 135.59,29.32 115.37,29.32 117.11,24.95 137.32,24.95 141.3,14.9 121.11,14.9 122.85,10.53 	"/>
	<path class="st0" d="M91.23,14.71l-3.9,10.37l6.29,0l0,0.72c-0.91,1.77-1.5,3.38-4.61,3.38l-3.5,0c-1.7,0-2.9-1.68-2.33-3.29
		l0.28-0.81l3.85-10.37l0.43-1.22c0.93-2.64,2.24-2.88,4.07-2.88l17-0.01l4.03-10.13L93.5,0.48c-6.68,0-11.54,1.27-13.99,7.48
		l-7,17.65c-2.61,6.61,2.27,13.77,9.37,13.76l7.23,0c4.99,0,9.48-3.05,11.32-7.69l6.75-16.98L91.23,14.71z"/>
	<path class="st0" d="M64.57,0.48H53.98h-5.19L33.42,39.37h5.19h6.12h9.32c6.08,0,11.55-3.71,13.8-9.36l6.2-15.56
		C76.71,7.75,71.78,0.48,64.57,0.48z M63.26,14.57L58.8,25.71c-0.87,2.17-2.96,3.59-5.3,3.59H48.5l7-18.69h5.08
		C62.62,10.61,64.02,12.67,63.26,14.57z"/>
	<g>
		<polygon class="st0" points="24.08,14.9 27.32,20.13 20.48,24.95 36.03,24.95 40,14.9 		"/>
		<polygon class="st0" points="15.16,0.48 21.38,10.53 41.73,10.53 45.7,0.48 		"/>
		<polygon class="st0" points="14.28,29.32 0,39.37 7.96,39.37 10.07,39.37 30.32,39.37 34.3,29.32 		"/>
	</g>
</g>
</svg>
