<?xml version="1.0" encoding="UTF-8"?>
<!-- Generated by Pixelmator Pro 3.3.12 -->
<svg width="410" height="40" viewBox="0 0 410 40" xmlns="http://www.w3.org/2000/svg">
    <path id="CARDAHOLIC-" fill="#ffffff" fill-rule="evenodd" stroke="none" d="M 387.947906 0 L 387.947906 5.57143 L 404.662201 5.57143 L 404.662201 0 Z M 404.662201 5.57143 L 404.662201 11.142859 L 410.233612 11.142859 L 410.233612 5.57143 Z M 387.947906 5.57143 L 382.376465 5.57143 L 382.376465 33.42857 L 387.947906 33.42857 Z M 387.947906 33.42857 L 387.947906 39 L 404.662201 39 L 404.662201 33.42857 Z M 404.662201 33.42857 L 410.233612 33.42857 L 410.233612 27.857143 L 404.662201 27.857143 Z M 349.595734 0 L 349.595734 5.57143 L 355.167175 5.57143 L 355.167175 33.42857 L 349.595734 33.42857 L 349.595734 39 L 366.310028 39 L 366.310028 33.42857 L 360.738586 33.42857 L 360.738586 5.57143 L 366.310028 5.57143 L 366.310028 0 Z M 311.243561 0 L 311.243561 39 L 333.529297 39 L 333.529297 33.42857 L 316.815002 33.42857 L 316.815002 0 Z M 272.243561 0 L 272.243561 5.57143 L 288.957855 5.57143 L 288.957855 0 Z M 288.957855 5.57143 L 288.957855 33.42857 L 294.529297 33.42857 L 294.529297 5.57143 Z M 288.957855 33.42857 L 272.243561 33.42857 L 272.243561 39 L 288.957855 39 Z M 272.243561 33.42857 L 272.243561 5.57143 L 266.67215 5.57143 L 266.67215 33.42857 Z M 222.74855 0 L 222.74855 39 L 228.319977 39 L 228.319977 22.285715 L 245.034256 22.285715 L 245.034256 39 L 250.605698 39 L 250.605698 0 L 245.034256 0 L 245.034256 16.714285 L 228.319977 16.714285 L 228.319977 0 Z M 183.748535 0 L 183.748535 5.57143 L 200.46283 5.57143 L 200.46283 0 Z M 200.46283 5.57143 L 200.46283 22.285715 L 183.748535 22.285715 L 183.748535 5.57143 L 178.177109 5.57143 L 178.177109 39 L 183.748535 39 L 183.748535 27.857143 L 200.46283 27.857143 L 200.46283 39 L 206.034256 39 L 206.034256 5.57143 Z M 128.034241 0 L 128.034241 5.57143 L 133.605667 5.57143 L 133.605667 39 L 155.891388 39 L 155.891388 33.42857 L 139.177109 33.42857 L 139.177109 5.57143 L 155.891388 5.57143 L 155.891388 0 Z M 155.891388 5.57143 L 155.891388 33.42857 L 161.462799 33.42857 L 161.462799 5.57143 Z M 89.034233 0 L 89.034233 39 L 94.605667 39 L 94.605667 22.285715 L 105.748528 22.285715 L 105.748528 27.857143 L 111.319954 27.857143 L 111.319954 16.714285 L 94.605667 16.714285 L 94.605667 5.57143 L 111.319954 5.57143 L 111.319954 0 Z M 111.319954 5.57143 L 111.319954 16.714285 L 116.891373 16.714285 L 116.891373 5.57143 Z M 111.319954 27.857143 L 111.319954 39 L 116.891373 39 L 116.891373 27.857143 Z M 50.034229 0 L 50.034229 5.57143 L 66.748512 5.57143 L 66.748512 0 Z M 66.748512 5.57143 L 66.748512 22.285715 L 50.034229 22.285715 L 50.034229 5.57143 L 44.462799 5.57143 L 44.462799 39 L 50.034229 39 L 50.034229 27.857143 L 66.748512 27.857143 L 66.748512 39 L 72.319939 39 L 72.319939 5.57143 Z M 5.46279 0 L 5.46279 5.57143 L 22.177076 5.57143 L 22.177076 0 Z M 22.177076 5.57143 L 22.177076 11.142859 L 27.748505 11.142859 L 27.748505 5.57143 Z M 5.46279 5.57143 L -0.108639 5.57143 L -0.108639 33.42857 L 5.46279 33.42857 Z M 5.46279 33.42857 L 5.46279 39 L 22.177076 39 L 22.177076 33.42857 Z M 22.177076 33.42857 L 27.748505 33.42857 L 27.748505 27.857143 L 22.177076 27.857143 Z"/>
</svg>
