<?xml version="1.0" encoding="UTF-8"?>
<!-- Generated by Pixelmator Pro 3.3.12 -->
<svg width="400" height="250" viewBox="0 0 400 250" xmlns="http://www.w3.org/2000/svg">
    <path id="CARDAHOLIC" fill="#ffffff" fill-rule="evenodd" stroke="none" d="M 365.416412 76.573975 L 367.32196 81.809402 L 383.028259 76.092773 L 381.122711 70.857346 Z M 383.028259 76.092773 L 384.933777 81.328217 L 390.16922 79.422668 L 388.263672 74.187241 Z M 367.32196 81.809402 L 362.086517 83.714951 L 371.614227 109.89209 L 376.84967 107.986557 Z M 376.84967 107.986557 L 378.755188 113.221985 L 394.461487 107.505356 L 392.555939 102.269928 Z M 392.555939 102.269928 L 397.791382 100.364395 L 395.885834 95.128967 L 390.650421 97.0345 Z M 329.377167 89.691177 L 331.282715 94.92662 L 336.518127 93.021072 L 346.045837 119.198227 L 340.810425 121.10376 L 342.715942 126.339195 L 358.422241 120.622574 L 356.516693 115.387146 L 351.281281 117.292679 L 341.753571 91.11554 L 346.989014 89.209991 L 345.083466 83.974564 Z M 293.337921 102.808395 L 306.676697 139.456421 L 327.618439 131.834244 L 325.712891 126.598816 L 310.006592 132.31543 L 298.573364 100.902863 Z M 256.689911 116.147186 L 258.595428 121.382614 L 274.301727 115.666 L 272.39621 110.430557 Z M 274.301727 115.666 L 283.829437 141.84314 L 289.06488 139.937592 L 279.53717 113.760452 Z M 283.829437 141.84314 L 268.123138 147.559769 L 270.028687 152.795197 L 285.734985 147.078583 Z M 268.123138 147.559769 L 258.595428 121.382614 L 253.360016 123.288155 L 262.887726 149.465302 Z M 210.179794 133.07547 L 223.518585 169.723495 L 228.754013 167.817963 L 223.037384 152.111664 L 238.743683 146.395035 L 244.460297 162.101318 L 249.69574 160.195786 L 236.356949 123.547775 L 231.121521 125.453316 L 236.838135 141.159607 L 221.131851 146.876221 L 215.415222 131.169937 Z M 173.531769 146.414276 L 175.437317 151.649689 L 191.143616 145.933075 L 189.238068 140.697647 Z M 191.143616 145.933075 L 196.860229 161.639374 L 181.153931 167.355988 L 175.437317 151.649689 L 170.201889 153.555237 L 181.635132 184.967819 L 186.87056 183.062286 L 183.059479 172.591431 L 198.765778 166.874802 L 202.576859 177.345657 L 207.812286 175.440125 L 196.379044 144.027527 Z M 121.17746 165.469681 L 123.083 170.705109 L 128.318436 168.799561 L 139.751678 200.212158 L 160.693405 192.589981 L 158.787857 187.354553 L 143.081573 193.071182 L 133.553864 166.894028 L 149.260162 161.177399 L 147.354614 155.941971 Z M 149.260162 161.177399 L 158.787857 187.354553 L 164.023285 185.44902 L 154.495575 159.271866 Z M 84.529442 178.808472 L 97.868233 215.456482 L 103.103661 213.550934 L 97.387039 197.84465 L 107.857903 194.033569 L 109.763443 199.268997 L 114.998871 197.363464 L 111.18779 186.892593 L 95.481499 192.609222 L 91.670418 182.138367 L 107.376709 176.421738 L 105.471169 171.18631 Z M 107.376709 176.421738 L 111.18779 186.892593 L 116.42321 184.987061 L 112.612129 174.516205 Z M 114.998871 197.363464 L 118.809952 207.83432 L 124.045372 205.928772 L 120.234291 195.457916 Z M 47.881428 192.147247 L 49.786968 197.38269 L 65.493256 191.666061 L 63.587715 186.430634 Z M 65.493256 191.666061 L 71.209877 207.37236 L 55.50359 213.088974 L 49.786968 197.38269 L 44.551537 199.288223 L 55.984779 230.700806 L 61.220211 228.795273 L 57.40913 218.324402 L 73.115417 212.607788 L 76.926498 223.078644 L 82.161934 221.173111 L 70.728683 189.760529 Z M 5.997974 207.391586 L 7.903515 212.627014 L 23.609806 206.9104 L 21.704264 201.674957 Z M 23.609806 206.9104 L 25.515347 212.145828 L 30.750778 210.24028 L 28.845238 205.004852 Z M 7.903515 212.627014 L 2.668084 214.532562 L 12.195787 240.709702 L 17.431219 238.804169 Z M 17.431219 238.804169 L 19.33676 244.039597 L 35.043049 238.322968 L 33.137508 233.08754 Z M 33.137508 233.08754 L 38.37294 231.182007 L 36.4674 225.946579 L 31.23197 227.852112 Z"/>
</svg>
